<?xml version="1.0" encoding="utf-8"?>
<!-- Generator: Adobe Illustrator 17.1.0, SVG Export Plug-In . SVG Version: 6.00 Build 0)  -->
<!DOCTYPE svg PUBLIC "-//W3C//DTD SVG 1.1//EN" "http://www.w3.org/Graphics/SVG/1.1/DTD/svg11.dtd">
<svg version="1.1" id="Layer_1" xmlns="http://www.w3.org/2000/svg" xmlns:xlink="http://www.w3.org/1999/xlink" x="0px" y="0px"
	 viewBox="0 0 622.8 122.9" enable-background="new 0 0 622.8 122.9" xml:space="preserve">
<g>
	<path fill="#1A9DBB" d="M44.8,100.5V89.2h0c-5.7,0-11.4-2.2-15.8-6.5l0,0c-4.1-4-6.6-9.6-6.6-15.8H0h0c0,1.1,0.1,2.2,0.1,3.3
		c0,0.1,0,0.2,0,0.2c0.2,2.2,0.5,4.3,1,6.4c0,0.1,0,0.2,0.1,0.2c0.5,2.1,1.1,4.1,1.9,6c0,0.1,0.1,0.2,0.1,0.3
		c0.8,1.9,1.7,3.8,2.7,5.5C5.9,89.1,6,89.2,6,89.4c1,1.7,2.1,3.4,3.4,5c0.1,0.1,0.2,0.2,0.3,0.3c1.1,1.4,2.2,2.6,3.4,3.9l0,0
		c3.3,3.3,7.1,6,11.1,8.1c0.1,0.1,0.3,0.1,0.4,0.2c0.9,0.5,1.8,0.9,2.7,1.3c0,0,0,0,0,0c0.6,0.3,1.2,0.5,1.8,0.7
		c0.1,0,0.2,0.1,0.2,0.1c0.6,0.2,1.1,0.4,1.7,0.6c0.1,0.1,0.3,0.1,0.4,0.1c0.5,0.2,1,0.3,1.6,0.4c0.2,0.1,0.4,0.1,0.6,0.2
		c0.5,0.1,1,0.3,1.5,0.4c0.2,0,0.4,0.1,0.6,0.1c0.5,0.1,1.1,0.2,1.7,0.3c0.2,0,0.3,0.1,0.5,0.1c0.6,0.1,1.3,0.2,1.9,0.2
		c0.1,0,0.1,0,0.2,0c1.5,0.2,3,0.2,4.6,0.2L44.8,100.5C44.8,100.5,44.8,100.5,44.8,100.5L44.8,100.5L44.8,100.5z"/>
	<path fill="#05373F" d="M89.5,66.9L89.5,66.9H78.4c0,8.6-3.3,17.2-9.8,23.8l0,0c-6.1,6.1-14.5,9.8-23.8,9.8v11.2l0,0v11.2
		c15.4,0,29.4-6.3,39.5-16.4l0,0c10.9-10.9,16.4-25.2,16.4-39.6H89.5z"/>
	<path fill="#1A9DBB" d="M92.1,19.6L92.1,19.6C79,6.5,61.9,0,44.7,0l0,11h0v11.2c11.4,0,22.9,4.4,31.6,13.1v0
		c8.1,8.1,13.1,19.3,13.1,31.7h11.2h11C111.7,48.5,104.2,31.7,92.1,19.6z"/>
	<path fill="#05373F" d="M44.8,44.6c-12.3,0-22.3,10-22.3,22.3l0,0h22.3h22.3l0,0C67.1,54.6,57.1,44.6,44.8,44.6z"/>
	<g>
		<path fill="#231F20" d="M184.4,79c-2.9,2.7-6.7,4.4-11,4.4c-7.5,0-13.7-5.1-15.5-12h15.7H189h9.2c0.2-1.3,0.3-2.6,0.3-4
			c0-13.8-11.2-25.1-25.1-25.1c-13.8,0-25.1,11.2-25.1,25.1c0,13.8,11.2,25.1,25.1,25.1c9.6,0,18-5.4,22.2-13.4H184.4z M173.5,51.3
			c7.5,0,13.7,5.1,15.5,12h-31C159.7,56.4,166,51.3,173.5,51.3z"/>
		<path fill="#231F20" d="M265.2,79c-2.9,2.7-6.7,4.4-11,4.4c-7.5,0-13.7-5.1-15.5-12h15.7h15.3h9.2c0.2-1.3,0.4-2.6,0.4-4
			c0-13.8-11.2-25.1-25.1-25.1c-13.8,0-25.1,11.2-25.1,25.1c0,13.8,11.2,25.1,25.1,25.1c9.6,0,18-5.4,22.2-13.4H265.2z M254.2,51.3
			c7.5,0,13.7,5.1,15.5,12h-31C240.5,56.4,246.8,51.3,254.2,51.3z"/>
		<path fill="#231F20" d="M401.3,79c-2.9,2.7-6.7,4.4-11,4.4c-7.5,0-13.7-5.1-15.5-12h15.7h15.3h9.2c0.2-1.3,0.4-2.6,0.4-4
			c0-13.8-11.2-25.1-25.1-25.1c-13.8,0-25.1,11.2-25.1,25.1c0,13.8,11.2,25.1,25.1,25.1c9.6,0,18-5.4,22.2-13.4H401.3z M390.4,51.3
			c7.5,0,13.7,5.1,15.5,12h-31C376.6,56.4,382.9,51.3,390.4,51.3z"/>
		<path fill="#231F20" d="M521.6,92.4c-10.1,0-19.3-5.9-19.3-18.9V43.4h9.5v29.2c0,7.8,5.3,10.7,9.9,10.8c4.6-0.1,9.9-3.1,9.9-10.8
			V43.4h9.5v30.1c0,13-9.3,18.9-19.3,18.9L521.6,92.4z"/>
		<path fill="#231F20" d="M225.9,92.4c-11.5,0-18.6-7.2-18.6-18.9v-43h9.5v42.1c0,6.7,3.4,10.7,9.2,10.8l0.7,0v9H225.9z"/>
		<path fill="#231F20" d="M339.7,42.6c-6.5,0-11.7,2.5-15.7,7.7c-3.2-5-8.4-7.7-14.6-7.7c-5.2,0-9.5,1.9-13,5.7v-4.7h-9.7v48h9.7
			V64.4c0-7.4,4.6-12.7,11-12.7c6.4,0,10.1,4.3,10.1,11.9v28h9.6V64.2c0-8.6,5.5-12.4,11-12.4c6.6,0,10.2,4.3,10.2,12.1v27.8h9.7
			V62.2C358,50.1,351,42.6,339.7,42.6z"/>
		<path fill="#231F20" d="M604.6,42.6c-6.5,0-11.7,2.5-15.7,7.7c-3.2-5-8.4-7.7-14.6-7.7c-5.2,0-9.5,1.9-13,5.7v-4.7h-9.7v48h9.7
			V64.4c0-7.4,4.6-12.7,11-12.7c6.4,0,10.1,4.3,10.1,11.9v28h9.6V64.2c0-8.6,5.5-12.4,11-12.4c6.6,0,10.2,4.3,10.2,12.1v27.8h9.7
			V62.2C622.8,50.1,615.8,42.6,604.6,42.6z"/>
		<path fill="#231F20" d="M445.7,42.6c-5.6,0-9.5,1.9-13.1,5.8v-4.8h-9.7v48h9.7V64.3c0-7.4,4.1-12.6,11.2-12.6
			c7,0,10.2,4.4,10.2,12.1v27.8h9.7V62.1C463.7,50.3,457.1,42.6,445.7,42.6z"/>
		<g>
			<g>
				<path fill="#231F20" d="M492.1,92.4c-11.4,0-18.6-7.2-18.6-18.9V35.6h9.5v7.8h9.3v9.3H483v19.9c0,6.7,3.4,10.7,9.2,10.8l0.7,0v9
					H492.1z"/>
			</g>
		</g>
	</g>
</g>
</svg>
