<?xml version="1.0" encoding="utf-8"?>
<!-- Generator: Adobe Illustrator 17.1.0, SVG Export Plug-In . SVG Version: 6.00 Build 0)  -->
<!DOCTYPE svg PUBLIC "-//W3C//DTD SVG 1.1//EN" "http://www.w3.org/Graphics/SVG/1.1/DTD/svg11.dtd">
<svg version="1.1" id="Layer_1" xmlns="http://www.w3.org/2000/svg" xmlns:xlink="http://www.w3.org/1999/xlink" x="0px" y="0px"
	 viewBox="0 0 212 212" enable-background="new 0 0 212 212" xml:space="preserve">
<g>
	<rect fill-rule="evenodd" clip-rule="evenodd" fill="#484949" width="212" height="212"/>
	<path fill-rule="evenodd" clip-rule="evenodd" fill="#FFFFFF" d="M136.7,70c-17.8,0-32.9,11.7-38,27.9H78.6V85.7H63.4v12.3H57V85.7
		H41.8v12.3h-4.5c-8.5,0-8.5,23.9,0,23.9h61.4c5.1,16.2,20.2,27.9,38,27.9c22,0,39.8-17.8,39.8-39.8C176.5,87.9,158.7,70,136.7,70z
		 M136.7,129.4c-10.8,0-19.6-8.8-19.6-19.6s8.8-19.6,19.6-19.6c10.8,0,19.6,8.8,19.6,19.6S147.5,129.4,136.7,129.4z"/>
</g>
</svg>
