<?xml version="1.0" encoding="utf-8"?>
<!-- Generator: Adobe Illustrator 17.1.0, SVG Export Plug-In . SVG Version: 6.00 Build 0)  -->
<!DOCTYPE svg PUBLIC "-//W3C//DTD SVG 1.1//EN" "http://www.w3.org/Graphics/SVG/1.1/DTD/svg11.dtd">
<svg version="1.1" id="Layer_1" xmlns="http://www.w3.org/2000/svg" xmlns:xlink="http://www.w3.org/1999/xlink" x="0px" y="0px"
	 viewBox="0 0 212 212" enable-background="new 0 0 212 212" xml:space="preserve">
<g>
	<path fill-rule="evenodd" clip-rule="evenodd" fill="#484949" d="M151.8,54.2c-24.9,0-46,16.4-53.1,39H70.6V76H49.4v17.1h-9V76
		H19.1v17.1h-6.2c-11.9,0-11.9,33.3,0,33.3h85.9c7.1,22.6,28.2,39,53.1,39c30.7,0,55.6-24.9,55.6-55.6
		C207.5,79.1,182.5,54.2,151.8,54.2z M151.8,137.2c-15.1,0-27.4-12.3-27.4-27.4s12.3-27.4,27.4-27.4c15.1,0,27.4,12.3,27.4,27.4
		S166.9,137.2,151.8,137.2z"/>
</g>
</svg>
