<?xml version="1.0" encoding="utf-8"?>
<!-- Generator: Adobe Illustrator 17.1.0, SVG Export Plug-In . SVG Version: 6.00 Build 0)  -->
<!DOCTYPE svg PUBLIC "-//W3C//DTD SVG 1.1//EN" "http://www.w3.org/Graphics/SVG/1.1/DTD/svg11.dtd">
<svg version="1.1" id="Layer_1" xmlns="http://www.w3.org/2000/svg" xmlns:xlink="http://www.w3.org/1999/xlink" x="0px" y="0px"
	 viewBox="0 0 212 212" enable-background="new 0 0 212 212" xml:space="preserve">
<g>
	<g>
		<path fill="#484949" d="M162.9,107c0-30.7-24.9-55.5-55.5-55.5c-14.8,0-28.2,5.8-38.1,15.2l12.6,16.8c6.3-6.9,15.4-11.2,25.5-11.2
			c19.2,0,34.7,15.5,34.7,34.7h-13.9l24.3,32.3l24.3-32.3H162.9z M107.3,141.7c-19.2,0-34.7-15.5-34.7-34.7h13.9L62.2,74.7L37.9,107
			h13.9c0,30.7,24.9,55.5,55.6,55.5c14.8,0,28.2-5.8,38.1-15.2l-12.7-16.8C126.5,137.4,117.4,141.7,107.3,141.7"/>
	</g>
</g>
</svg>
