<?xml version="1.0" encoding="utf-8"?>
<!-- Generator: Adobe Illustrator 17.1.0, SVG Export Plug-In . SVG Version: 6.00 Build 0)  -->
<!DOCTYPE svg PUBLIC "-//W3C//DTD SVG 1.1//EN" "http://www.w3.org/Graphics/SVG/1.1/DTD/svg11.dtd">
<svg version="1.1" id="Layer_1" xmlns="http://www.w3.org/2000/svg" xmlns:xlink="http://www.w3.org/1999/xlink" x="0px" y="0px"
	 viewBox="0 0 212 212" enable-background="new 0 0 212 212" xml:space="preserve">
<g>
	<g>
		<path fill="#484949" d="M188.7,107c0-44.9-36.4-81.3-81.3-81.3c-21.7,0-41.3,8.5-55.9,22.3L70,72.6c9.3-10.1,22.6-16.4,37.3-16.4
			c28.1,0,50.8,22.8,50.8,50.8h-20.3l35.6,47.3L209,107H188.7z M107.3,157.8c-28.1,0-50.8-22.8-50.8-50.8h20.3L41.2,59.7L5.7,107H26
			c0,44.9,36.4,81.3,81.3,81.3c21.6,0,41.2-8.5,55.8-22.3l-18.5-24.6C135.4,151.5,122.1,157.8,107.3,157.8"/>
	</g>
</g>
</svg>
