<?xml version="1.0" encoding="utf-8"?>
<!-- Generator: Adobe Illustrator 17.1.0, SVG Export Plug-In . SVG Version: 6.00 Build 0)  -->
<!DOCTYPE svg PUBLIC "-//W3C//DTD SVG 1.1//EN" "http://www.w3.org/Graphics/SVG/1.1/DTD/svg11.dtd">
<svg version="1.1" id="Layer_1" xmlns="http://www.w3.org/2000/svg" xmlns:xlink="http://www.w3.org/1999/xlink" x="0px" y="0px"
	 viewBox="0 0 360 360" enable-background="new 0 0 360 360" xml:space="preserve">
<g>
	<path fill="#1B9EBC" d="M149,288.1v-31.2h0c-15.8,0-31.6-6-43.7-18l0,0c-11.2-11.2-18.2-26.6-18.2-43.7H25.1h0
		c0,3.1,0.1,6.1,0.4,9.2c0,0.2,0,0.4,0,0.7c0.5,6,1.4,12,2.7,17.8c0.1,0.2,0.1,0.4,0.2,0.7c1.3,5.7,3.1,11.3,5.2,16.7
		c0.1,0.3,0.2,0.5,0.3,0.8c2.1,5.3,4.6,10.4,7.4,15.4c0.2,0.3,0.4,0.6,0.5,0.9c2.8,4.8,5.9,9.5,9.4,13.9c0.2,0.3,0.5,0.6,0.7,1
		c3,3.7,6.1,7.3,9.5,10.7l0,0c9.3,9.3,19.6,16.7,30.7,22.4c0.3,0.2,0.7,0.4,1,0.5c2.5,1.3,5,2.5,7.6,3.6c0.1,0,0.1,0,0.1,0
		c1.7,0.7,3.4,1.4,5.1,2c0.2,0.1,0.4,0.1,0.7,0.3c1.6,0.6,3.1,1.1,4.7,1.6c0.4,0.1,0.8,0.3,1.2,0.4c1.5,0.5,2.9,0.8,4.4,1.2
		c0.5,0.2,1.1,0.3,1.6,0.4c1.4,0.4,2.8,0.7,4.3,1c0.6,0.1,1.1,0.2,1.7,0.4c1.5,0.3,3.1,0.6,4.6,0.8c0.5,0.1,0.9,0.2,1.4,0.2
		c1.8,0.3,3.6,0.5,5.4,0.7c0.2,0,0.4,0,0.6,0.1c4.2,0.4,8.4,0.7,12.6,0.7L149,288.1C149,288.1,149,288.1,149,288.1L149,288.1
		L149,288.1z"/>
	<path fill="#05373F" d="M272.9,195L272.9,195H242c0,23.8-9.1,47.7-27.2,65.8l0,0c-16.8,16.8-40.1,27.3-65.8,27.3V319l0,0v30.9
		c42.7,0,81.4-17.3,109.5-45.3l0,0c30.3-30.3,45.4-69.9,45.4-109.6H272.9z"/>
	<path fill="#1B9EBC" d="M280,64L280,64C243.9,27.8,196.4,9.7,149,9.7l0,30.5h0v30.9c31.7,0,63.4,12.1,87.6,36.3v0
		c22.5,22.4,36.3,53.4,36.3,87.7h30.9h30.5C334.3,143.9,313.6,97.5,280,64z"/>
	<path fill="#05373F" d="M149,133.3c-34.1,0-61.8,27.7-61.8,61.8l0,0H149h61.8l0,0C210.8,160.9,183.1,133.3,149,133.3z"/>
</g>
</svg>
