<?xml version="1.0" encoding="utf-8"?>
<!-- Generator: Adobe Illustrator 17.1.0, SVG Export Plug-In . SVG Version: 6.00 Build 0)  -->
<!DOCTYPE svg PUBLIC "-//W3C//DTD SVG 1.1//EN" "http://www.w3.org/Graphics/SVG/1.1/DTD/svg11.dtd">
<svg version="1.1" id="Layer_1" xmlns="http://www.w3.org/2000/svg" xmlns:xlink="http://www.w3.org/1999/xlink" x="0px" y="0px"
	 viewBox="0 0 214.4 59.4" enable-background="new 0 0 214.4 59.4" xml:space="preserve">
<path fill="#FFFFFF" d="M21.3,41.1v-3.7h0c-1.8,0-3.7-0.7-5.1-2.1l0,0C14.8,34,14,32.2,14,30.2H6.7h0c0,0.4,0,0.7,0,1.1
	c0,0,0,0.1,0,0.1c0.1,0.7,0.2,1.4,0.3,2.1c0,0,0,0.1,0,0.1c0.2,0.7,0.4,1.3,0.6,2c0,0,0,0.1,0,0.1c0.2,0.6,0.5,1.2,0.9,1.8
	c0,0,0,0.1,0.1,0.1C9,38,9.4,38.6,9.8,39.1c0,0,0.1,0.1,0.1,0.1c0.4,0.4,0.7,0.9,1.1,1.3l0,0c1.1,1.1,2.3,2,3.6,2.6
	c0,0,0.1,0,0.1,0.1c0.3,0.2,0.6,0.3,0.9,0.4c0,0,0,0,0,0c0.2,0.1,0.4,0.2,0.6,0.2c0,0,0.1,0,0.1,0c0.2,0.1,0.4,0.1,0.6,0.2
	c0,0,0.1,0,0.1,0c0.2,0.1,0.3,0.1,0.5,0.1c0.1,0,0.1,0,0.2,0c0.2,0,0.3,0.1,0.5,0.1c0.1,0,0.1,0,0.2,0c0.2,0,0.4,0.1,0.5,0.1
	c0.1,0,0.1,0,0.2,0c0.2,0,0.4,0.1,0.6,0.1c0,0,0,0,0.1,0c0.5,0,1,0.1,1.5,0.1L21.3,41.1C21.3,41.1,21.3,41.1,21.3,41.1L21.3,41.1
	L21.3,41.1z"/>
<path fill="#FFFFFF" d="M35.7,30.2L35.7,30.2h-3.6c0,2.8-1.1,5.6-3.2,7.7l0,0c-2,2-4.7,3.2-7.7,3.2v3.6l0,0v3.6c5,0,9.5-2,12.8-5.3
	l0,0c3.5-3.5,5.3-8.2,5.3-12.8H35.7z"/>
<path fill="#FFFFFF" d="M36.6,14.8L36.6,14.8c-4.2-4.2-9.8-6.4-15.4-6.4l0,3.6h0v3.6c3.7,0,7.4,1.4,10.3,4.2v0
	c2.6,2.6,4.3,6.3,4.3,10.3h3.6h3.6C42.9,24.2,40.5,18.8,36.6,14.8z"/>
<path fill="#FFFFFF" d="M21.2,22.9c-4,0-7.2,3.2-7.2,7.2l0,0h7.2h7.2l0,0C28.5,26.2,25.2,22.9,21.2,22.9z"/>
<g>
	<path fill="#FFFFFF" d="M66.5,34.1c-0.9,0.9-2.2,1.4-3.6,1.4c-2.4,0-4.5-1.7-5-3.9H63h5h3c0.1-0.4,0.1-0.9,0.1-1.3
		c0-4.5-3.6-8.1-8.1-8.1c-4.5,0-8.1,3.6-8.1,8.1c0,4.5,3.6,8.1,8.1,8.1c3.1,0,5.8-1.8,7.2-4.3H66.5z M63,25.1c2.4,0,4.4,1.7,5,3.9
		H57.9C58.5,26.8,60.6,25.1,63,25.1z"/>
	<path fill="#FFFFFF" d="M92.7,34.1c-0.9,0.9-2.2,1.4-3.6,1.4c-2.4,0-4.5-1.7-5-3.9h5.1h5h3c0.1-0.4,0.1-0.9,0.1-1.3
		c0-4.5-3.6-8.1-8.1-8.1c-4.5,0-8.1,3.6-8.1,8.1c0,4.5,3.6,8.1,8.1,8.1c3.1,0,5.8-1.8,7.2-4.3H92.7z M89.2,25.1c2.4,0,4.5,1.7,5,3.9
		H84.2C84.7,26.8,86.8,25.1,89.2,25.1z"/>
	<path fill="#FFFFFF" d="M136.9,34.1c-0.9,0.9-2.2,1.4-3.6,1.4c-2.4,0-4.5-1.7-5-3.9h5.1h5h3c0.1-0.4,0.1-0.9,0.1-1.3
		c0-4.5-3.6-8.1-8.1-8.1c-4.5,0-8.1,3.6-8.1,8.1c0,4.5,3.6,8.1,8.1,8.1c3.1,0,5.8-1.8,7.2-4.3H136.9z M133.4,25.1
		c2.4,0,4.4,1.7,5,3.9h-10.1C128.9,26.8,130.9,25.1,133.4,25.1z"/>
	<path fill="#FFFFFF" d="M175.9,38.4c-3.3,0-6.3-1.9-6.3-6.1v-9.8h3.1V32c0,2.5,1.7,3.5,3.2,3.5c1.5,0,3.2-1,3.2-3.5v-9.5h3.1v9.8
		C182.3,36.5,179.3,38.4,175.9,38.4L175.9,38.4z"/>
	<path fill="#FFFFFF" d="M80,38.4c-3.7,0-6-2.4-6-6.1v-14h3.1V32c0,2.2,1.1,3.5,3,3.5l0.2,0v2.9H80z"/>
	<path fill="#FFFFFF" d="M116.9,22.3c-2.1,0-3.8,0.8-5.1,2.5c-1-1.6-2.7-2.5-4.7-2.5c-1.7,0-3.1,0.6-4.2,1.8v-1.5h-3.2v15.6h3.2
		v-8.8c0-2.4,1.5-4.1,3.6-4.1c2.1,0,3.3,1.4,3.3,3.9v9.1h3.1v-8.9c0-2.8,1.8-4,3.6-4c2.1,0,3.3,1.4,3.3,3.9v9h3.2v-9.5
		C122.8,24.7,120.6,22.3,116.9,22.3z"/>
	<path fill="#FFFFFF" d="M202.9,22.3c-2.1,0-3.8,0.8-5.1,2.5c-1-1.6-2.7-2.5-4.7-2.5c-1.7,0-3.1,0.6-4.2,1.8v-1.5h-3.2v15.6h3.2
		v-8.8c0-2.4,1.5-4.1,3.6-4.1s3.3,1.4,3.3,3.9v9.1h3.1v-8.9c0-2.8,1.8-4,3.6-4c2.1,0,3.3,1.4,3.3,3.9v9h3.2v-9.5
		C208.8,24.7,206.5,22.3,202.9,22.3z"/>
	<path fill="#FFFFFF" d="M151.3,22.3c-1.8,0-3.1,0.6-4.3,1.9v-1.6h-3.2v15.6h3.2v-8.9c0-2.4,1.3-4.1,3.6-4.1c2.3,0,3.3,1.4,3.3,3.9
		v9h3.2v-9.6C157.1,24.8,155,22.3,151.3,22.3z"/>
	<g>
		<g>
			<path fill="#FFFFFF" d="M166.4,38.4c-3.7,0-6-2.4-6-6.1V20h3.1v2.5h3v3h-3V32c0,2.2,1.1,3.5,3,3.5l0.2,0v2.9H166.4z"/>
		</g>
	</g>
</g>
</svg>
