<?xml version="1.0" encoding="utf-8"?>
<!-- Generator: Adobe Illustrator 17.1.0, SVG Export Plug-In . SVG Version: 6.00 Build 0)  -->
<!DOCTYPE svg PUBLIC "-//W3C//DTD SVG 1.1//EN" "http://www.w3.org/Graphics/SVG/1.1/DTD/svg11.dtd">
<svg version="1.1" xmlns="http://www.w3.org/2000/svg" xmlns:xlink="http://www.w3.org/1999/xlink" x="0px" y="0px"
	 viewBox="0 0 74.8 68.1" enable-background="new 0 0 74.8 68.1" xml:space="preserve">
<g id="Sites">
</g>
<g id="Map_Icons">
	<g>
		<path fill="#E71D2E" d="M73.1,49.5l-25-43.3C45.9,2.4,41.8,0,37.4,0C33,0,28.9,2.4,26.7,6.2l-25,43.3c-2.2,3.8-2.2,8.6,0,12.4
			c2.2,3.8,6.3,6.2,10.7,6.2h50c4.4,0,8.5-2.4,10.7-6.2C75.3,58,75.3,53.3,73.1,49.5"/>
		<path fill="#E71D2E" d="M65.1,54.1l-25-43.3c-0.6-1-1.6-1.5-2.7-1.5c-1.1,0-2.1,0.6-2.7,1.5l-25,43.3c-0.6,1-0.6,2.1,0,3.1
			c0.6,1,1.6,1.5,2.7,1.5h50c1.1,0,2.1-0.6,2.7-1.5C65.6,56.3,65.6,55.1,65.1,54.1"/>
		<path fill="none" stroke="#FFFFFF" stroke-width="4.479" stroke-miterlimit="10" d="M65.1,54.1l-25-43.3c-0.6-1-1.6-1.5-2.7-1.5
			c-1.1,0-2.1,0.6-2.7,1.5l-25,43.3c-0.6,1-0.6,2.1,0,3.1c0.6,1,1.6,1.5,2.7,1.5h50c1.1,0,2.1-0.6,2.7-1.5
			C65.6,56.3,65.6,55.1,65.1,54.1z"/>
		<path fill="#FFFFFF" d="M37.4,54.3c-1.7,0-3.1-1.4-3.1-3.1c0-1.7,1.4-3.1,3.1-3.1c1.7,0,3.1,1.4,3.1,3.1
			C40.5,52.9,39.1,54.3,37.4,54.3"/>
		<path fill="#FFFFFF" d="M41.3,25.8l-2.9,20.9c-0.3-0.1-0.6-0.1-1-0.1c-0.3,0-0.7,0-1,0.1l-2.9-20.9c-0.3-2.1,1.2-4.1,3.3-4.4
			c2.1-0.3,4.1,1.2,4.4,3.3C41.3,25,41.3,25.4,41.3,25.8"/>
	</g>
</g>
</svg>
