<?xml version="1.0" encoding="utf-8"?>
<!-- Generator: Adobe Illustrator 17.1.0, SVG Export Plug-In . SVG Version: 6.00 Build 0)  -->
<!DOCTYPE svg PUBLIC "-//W3C//DTD SVG 1.1//EN" "http://www.w3.org/Graphics/SVG/1.1/DTD/svg11.dtd">
<svg version="1.1" xmlns="http://www.w3.org/2000/svg" xmlns:xlink="http://www.w3.org/1999/xlink" x="0px" y="0px"
	 viewBox="0 0 85.5 85.5" enable-background="new 0 0 85.5 85.5" xml:space="preserve">
<g id="Sites">
</g>
<g id="Map_Icons">
	<g>
		<path fill="#919090" d="M85.5,42.7c0,23.6-19.1,42.7-42.7,42.7C19.1,85.5,0,66.3,0,42.7S19.1,0,42.7,0C66.3,0,85.5,19.1,85.5,42.7
			"/>
		<path fill="#FFFFFF" d="M75.6,42.3h-3.1l0-4.8l-2.9,0l-2.8-5.4H56.5v10.2h-7.3l-1,1.9H34.1v-1.5H9.9v1.5h0l6.5,9.1l49.9,0h2.9h2.8
			c0,0-0.7-2.3,1.8-4.1c1.9-1.3,1.8-3.6,1.8-3.6L75.6,42.3z M60.7,36.6h-3.1v-2.1h3.1V36.6z M63.7,36.6h-2.1v-2.1h2.1V36.6z"/>
	</g>
</g>
</svg>
