<?xml version="1.0" encoding="utf-8"?>
<!-- Generator: Adobe Illustrator 17.1.0, SVG Export Plug-In . SVG Version: 6.00 Build 0)  -->
<!DOCTYPE svg PUBLIC "-//W3C//DTD SVG 1.1//EN" "http://www.w3.org/Graphics/SVG/1.1/DTD/svg11.dtd">
<svg version="1.1" xmlns="http://www.w3.org/2000/svg" xmlns:xlink="http://www.w3.org/1999/xlink" x="0px" y="0px"
	 viewBox="0 0 85.5 85.5" enable-background="new 0 0 85.5 85.5" xml:space="preserve">
<g id="Sites">
	<g>
		<path fill="#CCCBCB" d="M85.5,42.7c0,23.6-19.1,42.7-42.7,42.7C19.1,85.5,0,66.3,0,42.7S19.1,0,42.7,0C66.3,0,85.5,19.1,85.5,42.7
			"/>
		<path fill-rule="evenodd" clip-rule="evenodd" fill="#FFFFFF" d="M38.6,46.6c-0.5,0.4-0.9,0.8-1.4,1.1c0.2,1,0.7,2,0.4,3.2
			c0.6,0.2,1.3,0.4,1.9,0.5c-0.2,1.2-0.5,2.5-1.1,3.8c-0.6-0.2-1.2-0.4-1.8-0.6c-0.5,1.2-1.3,2-2,2.8c0.2,0.5,0.5,1,0.8,1.5
			c-1.2,0.9-2.5,1.4-3.9,1.6c-0.3-0.6-0.5-1.2-0.8-1.9c-1,0-2,0.1-3.1-0.2c-0.3,0.5-0.7,1.1-1,1.6c-1.2-0.4-2.6-1.1-3.5-1.9
			c0.3-0.6,0.6-1.2,1-1.8c-0.9-0.7-1.5-1.5-1.7-2.4c-0.6,0.1-1.2,0.3-1.7,0.4c-0.8-1.2-1.1-2.6-1-4c0.6-0.1,1.3-0.2,2-0.3
			c0-1,0.3-2,1-3.1c-0.4-0.4-0.9-0.7-1.4-1c0.5-1.4,1.6-2.5,2.5-3.2c0.5,0.4,1,0.9,1.6,1.3c0.9-0.7,1.8-1.1,2.9-1.3
			c0.1-0.6,0-1.1,0.1-1.7c1.2-0.3,2.6-0.2,4,0.1c-0.1,0.7,0,1.3-0.1,1.9c0.9,0.3,2,0.9,2.7,1.5c0.5-0.3,1-0.7,1.6-1.1
			C37.1,44.5,37.8,45.6,38.6,46.6 M28,46.2c-1.1,0.3-2.2,1-2.9,2.4c-0.7,1.3-0.7,2.6-0.3,3.7c0.4,1.1,1.1,2.2,2.4,2.9
			c1.3,0.7,2.6,0.7,3.7,0.4c1.1-0.3,2.2-1.1,2.9-2.4c0.4-0.7,0.5-1.3,0.6-2c0.1-1.7-0.6-3.6-2.6-4.7C30.4,45.8,29,45.9,28,46.2"/>
		<path fill-rule="evenodd" clip-rule="evenodd" fill="#FFFFFF" d="M56.6,23.8c-0.2,1-0.2,2-0.5,3c1.5,0.9,3,1.9,4,3
			c0.9-0.4,1.8-0.9,2.7-1.5c1,1.8,1.9,3.6,2.9,5.4c-0.8,0.6-1.6,1-2.4,1.5c0.1,1.7,0.7,3.2-0.1,5.2c1,0.4,2,0.9,2.9,1.2
			c-0.5,1.8-1.3,4-2.6,5.8c-0.9-0.5-1.8-1-2.6-1.4c-1.1,1.7-2.5,2.7-3.8,3.9c0.2,0.9,0.6,1.7,0.8,2.6c-2,1.2-4.1,1.7-6.4,1.8
			c-0.4-1-0.6-2.1-0.9-3.1c-1.5-0.1-3-0.2-4.8-0.9c-0.7,0.7-1.3,1.6-2,2.4c-2.1-1-3.9-2.4-5.2-3.7c0.6-0.9,1.3-1.7,1.9-2.7
			c-1.1-1.3-2-2.7-2.2-4.2c-0.9,0.1-1.9,0.2-2.8,0.2c-1-2-1.1-4.2-0.7-6.5c1-0.1,2.1-0.1,3.2-0.1c0.3-1.5,1-3.5,2.2-4.8
			c-0.6-0.7-1.3-1.3-2.1-1.9c1.3-2.2,2.9-3.6,4.7-4.4c0.7,0.8,1.5,1.5,2.1,2.3c1.5-0.8,3.1-1.4,4.9-1.4c0.3-0.9,0.3-1.7,0.5-2.6
			C52.2,22.6,54.3,23.1,56.6,23.8 M47.5,29.1c-2.2,0.7-4.4,2.1-5.9,4.9c-1.4,2.7-1.4,5.2-0.7,7.5c0.6,2.2,2.3,4.5,4.8,5.8
			c2.6,1.4,5.3,1.4,7.5,0.8c2.2-0.6,4.4-2.1,5.9-4.8c0.7-1.3,1.1-2.7,1.1-4c0.2-3.5-1.2-7.3-5.2-9.4C52.3,28.4,49.6,28.5,47.5,29.1"
			/>
	</g>
</g>
<g id="Map_Icons">
</g>
</svg>
