<?xml version="1.0" encoding="utf-8"?>
<!-- Generator: Adobe Illustrator 17.1.0, SVG Export Plug-In . SVG Version: 6.00 Build 0)  -->
<!DOCTYPE svg PUBLIC "-//W3C//DTD SVG 1.1//EN" "http://www.w3.org/Graphics/SVG/1.1/DTD/svg11.dtd">
<svg version="1.1" xmlns="http://www.w3.org/2000/svg" xmlns:xlink="http://www.w3.org/1999/xlink" x="0px" y="0px"
	 viewBox="0 0 58.2 47.4" enable-background="new 0 0 58.2 47.4" xml:space="preserve">
<g id="Sites">
	<g>
		<path fill-rule="evenodd" clip-rule="evenodd" fill="#231F20" d="M23.9,29.8c-0.6,0.5-1.2,0.9-1.8,1.4c0.3,1.3,0.9,2.5,0.4,4.1
			c0.8,0.2,1.6,0.4,2.4,0.7c-0.2,1.5-0.6,3.1-1.4,4.8c-0.8-0.3-1.5-0.5-2.3-0.8c-0.6,1.4-1.6,2.4-2.5,3.5c0.3,0.7,0.6,1.3,0.9,1.9
			c-1.5,1.1-3.1,1.8-4.8,2.1c-0.4-0.8-0.7-1.6-1-2.3c-1.2,0-2.5,0.2-3.8-0.2c-0.4,0.6-0.8,1.4-1.3,2.1c-1.4-0.5-3.3-1.3-4.4-2.4
			c0.4-0.8,0.8-1.5,1.2-2.3c-1.1-0.9-1.8-1.9-2.2-3c-0.7,0.1-1.4,0.3-2.2,0.5c-0.9-1.5-1.3-3.2-1.2-5c0.8-0.2,1.6-0.3,2.4-0.4
			c0-1.2,0.3-2.5,1.2-3.9c-0.6-0.4-1.2-0.9-1.8-1.3c0.7-1.8,2-3.2,3.2-4c0.7,0.5,1.3,1.1,2,1.6c1.1-0.9,2.3-1.4,3.6-1.6
			c0.1-0.7,0-1.4,0.2-2.1c1.6-0.4,3.3-0.2,5,0.1c-0.1,0.8,0,1.6-0.1,2.4c1.1,0.4,2.6,1.1,3.4,1.9c0.7-0.4,1.3-0.9,1.9-1.4
			C22.1,27.2,23,28.5,23.9,29.8 M10.7,29.3c-1.3,0.4-2.8,1.3-3.7,3c-0.8,1.7-0.9,3.2-0.4,4.6c0.5,1.4,1.4,2.7,3,3.7
			c1.7,0.9,3.3,0.9,4.6,0.5c1.4-0.4,2.7-1.3,3.7-3c0.5-0.8,0.7-1.7,0.7-2.5c0.1-2.2-0.8-4.5-3.3-5.9C13.6,28.8,12,28.9,10.7,29.3"/>
		<path fill-rule="evenodd" clip-rule="evenodd" fill="#231F20" d="M46.4,1.3c-0.3,1.3-0.2,2.5-0.6,3.8c1.9,1.1,3.8,2.3,5,3.7
			c1.1-0.5,2.3-1.1,3.3-1.8c1.3,2.2,2.3,4.5,3.6,6.8c-1,0.7-2,1.3-3.1,1.9c0.2,2.1,0.9,4-0.1,6.5c1.2,0.5,2.5,1.1,3.7,1.5
			c-0.6,2.3-1.6,5-3.3,7.3c-1.1-0.6-2.2-1.2-3.3-1.7c-1.4,2.1-3.1,3.4-4.7,4.9c0.2,1.1,0.8,2.1,1,3.2c-2.5,1.4-5.1,2.2-8,2.2
			c-0.4-1.3-0.7-2.6-1.2-3.9c-1.9-0.1-3.8-0.2-5.9-1.1c-0.9,0.9-1.7,2-2.5,3c-2.6-1.3-4.9-3-6.4-4.7c0.8-1.2,1.6-2.2,2.3-3.4
			c-1.4-1.6-2.5-3.3-2.7-5.3c-1.2,0.1-2.3,0.2-3.5,0.3c-1.2-2.5-1.4-5.2-0.9-8.1c1.3-0.1,2.6-0.1,3.9-0.2c0.3-1.8,1.3-4.3,2.8-5.9
			c-0.8-0.8-1.7-1.6-2.6-2.4c1.7-2.8,3.7-4.5,5.8-5.6c0.9,0.9,1.8,1.9,2.7,2.9c1.9-1,3.9-1.8,6.1-1.7c0.4-1.1,0.3-2.1,0.7-3.3
			C40.9-0.3,43.6,0.4,46.4,1.3 M35.1,8c-2.7,0.9-5.5,2.6-7.4,6.1c-1.8,3.4-1.7,6.5-0.9,9.4c0.8,2.7,2.9,5.6,6,7.3
			c3.3,1.7,6.6,1.7,9.4,0.9c2.8-0.8,5.5-2.6,7.4-6c0.9-1.6,1.3-3.3,1.4-5c0.3-4.4-1.5-9.1-6.5-11.8C41,7,37.7,7.1,35.1,8"/>
	</g>
</g>
<g id="Map_Icons">
</g>
</svg>
