<?xml version="1.0" encoding="utf-8"?>
<!-- Generator: Adobe Illustrator 17.1.0, SVG Export Plug-In . SVG Version: 6.00 Build 0)  -->
<!DOCTYPE svg PUBLIC "-//W3C//DTD SVG 1.1//EN" "http://www.w3.org/Graphics/SVG/1.1/DTD/svg11.dtd">
<svg version="1.1" id="Layer_1" xmlns="http://www.w3.org/2000/svg" xmlns:xlink="http://www.w3.org/1999/xlink" x="0px" y="0px"
	 viewBox="0 0 85.451 85.45" enable-background="new 0 0 85.451 85.45" xml:space="preserve">
<g>
	<path fill="#908F8F" d="M85.451,42.725c0,23.596-19.13,42.725-42.727,42.725C19.129,85.45,0,66.321,0,42.725S19.129,0,42.724,0
		C66.321,0,85.451,19.129,85.451,42.725"/>
	<g>
		<circle fill="#FFFFFF" cx="16.659" cy="52.755" r="2.419"/>
		<circle fill="#FFFFFF" cx="28.512" cy="52.755" r="2.419"/>
		<circle fill="#FFFFFF" cx="35.786" cy="52.755" r="2.419"/>
		<circle fill="#FFFFFF" cx="57.606" cy="52.755" r="2.419"/>
		<circle fill="#FFFFFF" cx="64.88" cy="52.755" r="2.419"/>
		<path fill="#FFFFFF" d="M22.008,48.736h-0.874V37.868h-6.321h-1.398l-3.389,6.96v7.938h3.486c0-1.739,1.409-3.148,3.148-3.148
			s3.148,1.409,3.148,3.148h0.849h2.637h2.072c0-1.739,1.409-3.148,3.148-3.148s3.148,1.409,3.148,3.148h0.978
			c0-1.739,1.409-3.148,3.148-3.148c1.738,0,3.148,1.409,3.148,3.148h15.525c0-1.739,1.409-3.148,3.148-3.148
			c1.739,0,3.148,1.409,3.148,3.148h0.978c0-1.739,1.409-3.148,3.148-3.148c1.739,0,3.148,1.409,3.148,3.148h2.823v-4.03H22.013
			 M22.013,48.217h-0.005 M16.659,42.956h-4.122l1.703-4.002h2.419V42.956z"/>
		<rect x="22.239" y="30.276" fill="#FFFFFF" width="53.186" height="17.288"/>
	</g>
</g>
</svg>
