<?xml version="1.0" encoding="utf-8"?>
<!-- Generator: Adobe Illustrator 17.1.0, SVG Export Plug-In . SVG Version: 6.00 Build 0)  -->
<!DOCTYPE svg PUBLIC "-//W3C//DTD SVG 1.1//EN" "http://www.w3.org/Graphics/SVG/1.1/DTD/svg11.dtd">
<svg version="1.1" xmlns="http://www.w3.org/2000/svg" xmlns:xlink="http://www.w3.org/1999/xlink" x="0px" y="0px"
	 viewBox="0 0 85.4 85.5" enable-background="new 0 0 85.4 85.5" xml:space="preserve">
<g id="Sites">
	<g>
		<path fill="#4D4E4E" d="M85.4,42.7c0,23.6-19.1,42.7-42.7,42.7S0,66.3,0,42.7C0,19.1,19.1,0,42.7,0S85.4,19.1,85.4,42.7"/>
		<path fill="#FFFFFF" d="M44.4,44.8c-0.1-0.3-0.4-0.8-0.9-1.3l-2.2,4c0.6,0.2,1,0.3,1.4,0.3c0.6-0.1,1.1-0.5,1.6-1.3
			C44.5,46,44.6,45.4,44.4,44.8"/>
		<path fill="#FFFFFF" d="M43.5,37c-0.3,0.6-0.4,1.2-0.1,1.7c0.1,0.3,0.4,0.7,0.8,1.1l2-3.6c-0.6-0.3-1.1-0.4-1.6-0.3
			C44.2,36.1,43.8,36.4,43.5,37"/>
		<path fill="#FFFFFF" d="M37.1,23.6l-15.7,6.3l3,16.6l28.6,15.8l12.7-22.9L37.1,23.6z M24.1,33.5c-0.9-0.5-1.2-1.6-0.7-2.4
			c0.5-0.9,1.6-1.2,2.4-0.7c0.9,0.5,1.2,1.6,0.7,2.4C26.1,33.7,25,34,24.1,33.5 M43.2,50.6c-1,0.1-2.1-0.2-3.2-0.7L38.8,52l-1-0.6
			l1.1-2.1c-1.3-0.9-2.1-1.8-2.5-2.6c-0.7-1.4-0.6-3.1,0.5-5l2.8,1.5c-0.4,0.9-0.6,1.6-0.6,2c0,0.6,0.4,1.2,1.1,1.8l2.4-4.4L42,41.9
			c-1.1-1.1-1.7-2.2-1.9-3.2c-0.2-1,0-2,0.6-2.9c0.4-0.6,0.8-1.2,1.3-1.6c0.5-0.4,1-0.7,1.6-0.9c0.8-0.2,1.5-0.3,2.2-0.1
			c0.4,0.1,1,0.3,1.7,0.6l0.8-1.4l1,0.6l-0.8,1.4c1.1,0.7,1.8,1.5,2.2,2.3c0.8,1.4,0.7,2.9-0.2,4.6l-2.7-1.5
			c0.3-0.6,0.4-1.1,0.4-1.5c0-0.6-0.3-1.2-1-1.6l-2.2,3.9c1.3,1.5,2.1,2.6,2.5,3.3c0.5,1.2,0.4,2.5-0.3,3.8
			C46.3,49.6,44.9,50.5,43.2,50.6"/>
	</g>
</g>
<g id="Map_Icons">
</g>
</svg>
