<?xml version="1.0" encoding="utf-8"?>
<!-- Generator: Adobe Illustrator 17.1.0, SVG Export Plug-In . SVG Version: 6.00 Build 0)  -->
<!DOCTYPE svg PUBLIC "-//W3C//DTD SVG 1.1//EN" "http://www.w3.org/Graphics/SVG/1.1/DTD/svg11.dtd">
<svg version="1.1" xmlns="http://www.w3.org/2000/svg" xmlns:xlink="http://www.w3.org/1999/xlink" x="0px" y="0px"
	 viewBox="0 0 88.4 88.4" enable-background="new 0 0 88.4 88.4" xml:space="preserve">
<g id="Sites">
	<g>
		<path fill="#EC363E" d="M88.4,44.2c0,24.4-19.8,44.2-44.2,44.2C19.8,88.4,0,68.6,0,44.2C0,19.8,19.8,0,44.2,0
			C68.6,0,88.4,19.8,88.4,44.2"/>
		<rect x="52.7" y="43.3" fill="#FFFFFF" width="12.8" height="12.8"/>
		<rect x="52.7" y="29.1" fill="#FFFFFF" width="12.8" height="12.8"/>
		<path fill="#FFFFFF" d="M27.6,59c0,1.5-1.2,2.7-2.7,2.7c-1.5,0-2.7-1.2-2.7-2.7c0-1.5,1.2-2.7,2.7-2.7
			C26.4,56.4,27.6,57.6,27.6,59"/>
		<path fill="#FFFFFF" d="M47.9,59c0,1.5-1.2,2.7-2.7,2.7c-1.5,0-2.7-1.2-2.7-2.7c0-1.5,1.2-2.7,2.7-2.7
			C46.7,56.4,47.9,57.6,47.9,59"/>
		<path fill="#FFFFFF" d="M51.2,57.7V23.1h-1.8v26.1h-4.1l-7.9-19.9H23.5v19.9h-2.3v5.6h6.8l1.8,5h10.2l1.8-5h7.5v3v1.8h1.8h15.9
			v-1.8H51.2z M27.6,43.5V31.3h8.5L41,43.5H27.6z"/>
	</g>
</g>
<g id="Map_Icons">
</g>
</svg>
