<?xml version="1.0" encoding="utf-8"?>
<!-- Generator: Adobe Illustrator 17.1.0, SVG Export Plug-In . SVG Version: 6.00 Build 0)  -->
<!DOCTYPE svg PUBLIC "-//W3C//DTD SVG 1.1//EN" "http://www.w3.org/Graphics/SVG/1.1/DTD/svg11.dtd">
<svg version="1.1" xmlns="http://www.w3.org/2000/svg" xmlns:xlink="http://www.w3.org/1999/xlink" x="0px" y="0px"
	 viewBox="0 0 55.3 48.5" enable-background="new 0 0 55.3 48.5" xml:space="preserve">
<g id="Sites">
	<path fill="#231F20" d="M28.8,26.5c-0.2-0.4-0.5-1-1.1-1.6l-2.8,5.1c0.7,0.3,1.3,0.4,1.7,0.3c0.8-0.1,1.4-0.6,1.9-1.6
		C29,27.9,29,27.2,28.8,26.5"/>
	<path fill="#231F20" d="M27.7,16.7c-0.4,0.7-0.4,1.4-0.1,2.2c0.2,0.4,0.5,0.9,1,1.4l2.5-4.5c-0.8-0.4-1.4-0.5-2-0.3
		C28.5,15.6,28.1,16,27.7,16.7"/>
	<path fill="#231F20" d="M19.6,0L0,7.9l3.7,20.8l35.7,19.8l15.9-28.7L19.6,0z M3.4,12.3c-1.1-0.6-1.5-2-0.9-3.1
		c0.6-1.1,2-1.5,3.1-0.9c1.1,0.6,1.5,2,0.9,3.1C5.9,12.5,4.5,12.9,3.4,12.3 M27.3,33.6c-1.3,0.1-2.7-0.2-4-0.9l-1.4,2.6l-1.3-0.7
		l1.4-2.6c-1.6-1.1-2.7-2.2-3.2-3.2c-0.9-1.8-0.7-3.9,0.6-6.3l3.5,1.9c-0.5,1.2-0.7,2-0.7,2.5c0,0.8,0.5,1.5,1.4,2.2l3.1-5.5
		l-0.9-0.9c-1.4-1.4-2.2-2.7-2.4-3.9c-0.2-1.2,0-2.5,0.7-3.7c0.4-0.8,1-1.5,1.6-2c0.6-0.5,1.3-0.9,2-1.1c0.9-0.3,1.9-0.3,2.7-0.1
		c0.5,0.1,1.3,0.4,2.2,0.8l1-1.7l1.3,0.7l-1,1.7c1.3,0.9,2.2,1.8,2.7,2.9c0.9,1.7,0.9,3.6-0.2,5.7L33,20.3c0.4-0.8,0.5-1.4,0.5-1.9
		c0-0.8-0.4-1.5-1.2-2l-2.7,4.9c1.6,1.8,2.7,3.2,3.1,4.2c0.7,1.5,0.5,3.1-0.4,4.8C31.1,32.4,29.5,33.5,27.3,33.6"/>
</g>
<g id="Map_Icons">
</g>
</svg>
