<?xml version="1.0" encoding="utf-8"?>
<!-- Generator: Adobe Illustrator 17.1.0, SVG Export Plug-In . SVG Version: 6.00 Build 0)  -->
<!DOCTYPE svg PUBLIC "-//W3C//DTD SVG 1.1//EN" "http://www.w3.org/Graphics/SVG/1.1/DTD/svg11.dtd">
<svg version="1.1" xmlns="http://www.w3.org/2000/svg" xmlns:xlink="http://www.w3.org/1999/xlink" x="0px" y="0px"
	 viewBox="0 0 52.1 52.1" enable-background="new 0 0 52.1 52.1" xml:space="preserve">
<g id="Sites">
	<g>
		<path fill="#231F20" d="M19.9,30.6c-3.5,0.7-6.9,1.9-10,3.8L7,28.9L0,47.5l19.3,4.7l-3.5-6.7c5.3-3.4,12-3.9,17.7-1.3L19.9,30.6z"
			/>
		<path fill="#231F20" d="M21.5,30.3C21.5,30.3,21.5,30.3,21.5,30.3L32,40.9c-1.9-3.5-3.1-7.3-3.4-11.3c-0.3-3.1-0.1-6.2,0.5-9.3
			l-8.5-8.5l4.9-4.9L5.6,5.6l1.2,19.8l4.9-4.9L21.5,30.3z"/>
		<path fill="#231F20" d="M28.9,7l5.5,2.9c-0.5,0.9-1,1.8-1.4,2.7c0,0.1-0.1,0.2-0.1,0.3c-0.1,0.2-0.2,0.4-0.3,0.7
			c-0.9,2.1-1.6,4.4-2,6.7c-0.1,0.4-0.2,0.9-0.2,1.3l0,0c-0.5,2.9-0.6,5.6-0.3,8c0.8,6.4,3.5,12.4,7.8,17.2l1.3,1.3c0,0,0,0,0,0
			c0,0,0,0,0,0l0,0l8.8-8.8l0,0c0,0,0,0,0,0c-6.3-6.3-7.2-16.1-2.5-23.3l6.7,3.5L47.5,0L28.9,7z"/>
	</g>
</g>
<g id="Map_Icons">
</g>
</svg>
