<?xml version="1.0" encoding="utf-8"?>
<!-- Generator: Adobe Illustrator 17.1.0, SVG Export Plug-In . SVG Version: 6.00 Build 0)  -->
<!DOCTYPE svg PUBLIC "-//W3C//DTD SVG 1.1//EN" "http://www.w3.org/Graphics/SVG/1.1/DTD/svg11.dtd">
<svg version="1.1" xmlns="http://www.w3.org/2000/svg" xmlns:xlink="http://www.w3.org/1999/xlink" x="0px" y="0px"
	 viewBox="0 0 57.3 48.2" enable-background="new 0 0 57.3 48.2" xml:space="preserve">
<g id="Sites">
	<g>
		<path fill="#231F20" d="M7.9,44.9c0,1.8-1.5,3.3-3.3,3.3s-3.3-1.5-3.3-3.3c0-1.8,1.5-3.3,3.3-3.3S7.9,43.1,7.9,44.9"/>
		<path fill="#231F20" d="M33.2,44.9c0,1.8-1.5,3.3-3.3,3.3c-1.8,0-3.3-1.5-3.3-3.3c0-1.8,1.5-3.3,3.3-3.3
			C31.8,41.6,33.2,43.1,33.2,44.9"/>
		<rect x="39.4" y="25.2" fill="#231F20" width="16" height="16"/>
		<rect x="39.4" y="7.5" fill="#231F20" width="16" height="16"/>
		<path fill="#231F20" d="M37.5,43.3V0h-2.2v32.6h-5.1L20.2,7.8H2.9v24.8H0v6.9h8.5l2.3,6.3h12.7l2.3-6.3h9.4v3.7v2.2h2.2h19.9v-2.2
			H37.5z M7.9,25.6V10.2h10.7l6.1,15.4H7.9z"/>
	</g>
</g>
<g id="Map_Icons">
</g>
</svg>
