<?xml version="1.0" encoding="utf-8"?>
<!-- Generator: Adobe Illustrator 17.1.0, SVG Export Plug-In . SVG Version: 6.00 Build 0)  -->
<!DOCTYPE svg PUBLIC "-//W3C//DTD SVG 1.1//EN" "http://www.w3.org/Graphics/SVG/1.1/DTD/svg11.dtd">
<svg version="1.1" xmlns="http://www.w3.org/2000/svg" xmlns:xlink="http://www.w3.org/1999/xlink" x="0px" y="0px"
	 viewBox="0 0 70.8 21.4" enable-background="new 0 0 70.8 21.4" xml:space="preserve">
<g id="Sites">
</g>
<g id="Map_Icons">
	<g>
		<rect x="10.1" y="7.9" fill="#231F20" width="8.6" height="3.8"/>
		<rect x="19.1" y="7.9" fill="#231F20" width="8.6" height="3.8"/>
		<rect x="10.1" y="3.5" fill="#231F20" width="8.6" height="3.8"/>
		<rect x="19.1" y="3.5" fill="#231F20" width="8.6" height="3.8"/>
		<rect x="28.2" y="7.9" fill="#231F20" width="8.6" height="3.8"/>
		<path fill="#231F20" d="M70.8,10.3h-3.1l0-4.8l-2.9,0L63,0h-3.1v5.4l-1.5,0l-1.1-4.1H47v9h-2.6l-1,1.9H10l-2.6-2l-7.4,0l0.2,2.8
			l4,8.3l57.3,0h2.9h2.8c0,0-0.7-2.3,1.8-4.1c1.9-1.3,1.8-3.6,1.8-3.6L70.8,10.3z M53.9,4.6H48V2.4h5.9V4.6z"/>
	</g>
</g>
</svg>
