<?xml version="1.0" encoding="utf-8"?>
<!-- Generator: Adobe Illustrator 17.1.0, SVG Export Plug-In . SVG Version: 6.00 Build 0)  -->
<!DOCTYPE svg PUBLIC "-//W3C//DTD SVG 1.1//EN" "http://www.w3.org/Graphics/SVG/1.1/DTD/svg11.dtd">
<svg version="1.1" xmlns="http://www.w3.org/2000/svg" xmlns:xlink="http://www.w3.org/1999/xlink" x="0px" y="0px"
	 viewBox="0 0 85.4 85.5" enable-background="new 0 0 85.4 85.5" xml:space="preserve">
<g id="Sites">
	<g>
		<path fill="#4D4E4E" d="M85.4,42.7c0,23.6-19.1,42.7-42.7,42.7C19.1,85.5,0,66.3,0,42.7C0,19.1,19.1,0,42.7,0
			C66.3,0,85.4,19.1,85.4,42.7"/>
		<path fill="#FFFFFF" d="M62.4,27.2v-2.2H23.1v2.2h2.1v20.7h-2.1v2.2h18.5v9.3l-6.2,6.2l1.1,1.1l6-6h0.3l6,6l1.1-1.1l-6-6v-9.5
			h18.5v-2.2h-2.1V27.2H62.4z M50.6,39.4l-2.4-2.8l-7.3,7.6l-5-5l-6.9,6.6l-1.3-1.3l8.1-7.8l4.9,5l7.4-7.7l2.5,2.8l5.6-5.3l1.2,1.3
			L50.6,39.4z"/>
	</g>
</g>
<g id="Map_Icons">
</g>
</svg>
