<?xml version="1.0" encoding="utf-8"?>
<!-- Generator: Adobe Illustrator 17.1.0, SVG Export Plug-In . SVG Version: 6.00 Build 0)  -->
<!DOCTYPE svg PUBLIC "-//W3C//DTD SVG 1.1//EN" "http://www.w3.org/Graphics/SVG/1.1/DTD/svg11.dtd">
<svg version="1.1" xmlns="http://www.w3.org/2000/svg" xmlns:xlink="http://www.w3.org/1999/xlink" x="0px" y="0px"
	 viewBox="0 0 85.4 85.5" enable-background="new 0 0 85.4 85.5" xml:space="preserve">
<g id="Sites">
	<g>
		<path fill="#CCCBCB" d="M85.4,42.7c0,23.6-19.1,42.7-42.7,42.7C19.1,85.5,0,66.3,0,42.7C0,19.1,19.1,0,42.7,0
			C66.3,0,85.4,19.1,85.4,42.7"/>
		<path fill="#FFFFFF" d="M36.8,45.4c-2.8,0.5-5.5,1.6-8,3.1L26.4,44l-5.6,14.9l15.4,3.7l-2.8-5.3c4.3-2.7,9.6-3.1,14.2-1.1
			L36.8,45.4z"/>
		<path fill="#FFFFFF" d="M38.1,45.2C38.1,45.2,38,45.2,38.1,45.2l8.4,8.5c-1.5-2.8-2.5-5.9-2.7-9c-0.2-2.5-0.1-5,0.4-7.4l-6.8-6.8
			l3.9-3.9l-15.9-1l1,15.9l3.9-3.9L38.1,45.2z"/>
		<path fill="#FFFFFF" d="M44,26.5l4.4,2.3c-0.4,0.7-0.8,1.4-1.1,2.1c0,0.1-0.1,0.2-0.1,0.2c-0.1,0.2-0.2,0.4-0.2,0.5
			c-0.7,1.7-1.2,3.5-1.6,5.3c-0.1,0.3-0.1,0.7-0.2,1l0,0c-0.4,2.3-0.5,4.5-0.3,6.4c0.6,5.1,2.8,10,6.2,13.8l1.1,1.1c0,0,0,0,0,0
			c0,0,0,0,0,0l0,0l7-7l0,0c0,0,0,0,0,0c-5.1-5.1-5.7-12.9-2-18.7l5.3,2.8l-3.7-15.4L44,26.5z"/>
	</g>
</g>
<g id="Map_Icons">
</g>
</svg>
