<?xml version="1.0" encoding="utf-8"?>
<!-- Generator: Adobe Illustrator 17.1.0, SVG Export Plug-In . SVG Version: 6.00 Build 0)  -->
<!DOCTYPE svg PUBLIC "-//W3C//DTD SVG 1.1//EN" "http://www.w3.org/Graphics/SVG/1.1/DTD/svg11.dtd">
<svg version="1.1" xmlns="http://www.w3.org/2000/svg" xmlns:xlink="http://www.w3.org/1999/xlink" x="0px" y="0px"
	 viewBox="0 0 85.5 85.5" enable-background="new 0 0 85.5 85.5" xml:space="preserve">
<g id="Sites">
</g>
<g id="Map_Icons">
	<g>
		<path fill="#919090" d="M85.5,42.7c0,23.6-19.1,42.7-42.7,42.7C19.1,85.5,0,66.3,0,42.7S19.1,0,42.7,0C66.3,0,85.5,19.1,85.5,42.7
			"/>
		<g>
			<rect x="44.9" y="32.9" fill="#FFFFFF" width="34" height="1.9"/>
			<g>
				<rect x="6.1" y="52.2" fill="#FFFFFF" width="73.2" height="0.9"/>
				<path fill="#FFFFFF" d="M11.8,52.2c1,0,1.8-0.8,1.8-1.8h1.2c0,1,0.8,1.8,1.8,1.8c1,0,1.8-0.8,1.8-1.8h0.4h15.4
					c0,1,0.8,1.8,1.8,1.8c1,0,1.8-0.8,1.8-1.8H39c0,1,0.8,1.8,1.8,1.8s1.8-0.8,1.8-1.8h1.3v-0.9h1.1v0.9h4c0,1,0.8,1.8,1.8,1.8
					c1,0,1.8-0.8,1.8-1.8h1.2c0,1,0.8,1.8,1.8,1.8c1,0,1.8-0.8,1.8-1.8h9.3c0,1,0.8,1.8,1.8,1.8s1.8-0.8,1.8-1.8h1.2
					c0,1,0.8,1.8,1.8,1.8s1.8-0.8,1.8-1.8h4V35.9H44.9v10.7h-1.1V35.9H22.2v-1.2h21.6v-1.9H42v-0.5h-5.2v0.5h-1.1v-0.5h-3.9v0.5h-13
					h-0.4h-5.9l-1.9,4.5l-4,2v11H10C10,51.4,10.8,52.2,11.8,52.2z M16.7,34.5H20V36h-3.3V34.5z M12.8,34.5h3.3V36h-3.8L12.8,34.5z"
					/>
			</g>
		</g>
	</g>
</g>
</svg>
