<?xml version="1.0" encoding="utf-8"?>
<!-- Generator: Adobe Illustrator 17.1.0, SVG Export Plug-In . SVG Version: 6.00 Build 0)  -->
<!DOCTYPE svg PUBLIC "-//W3C//DTD SVG 1.1//EN" "http://www.w3.org/Graphics/SVG/1.1/DTD/svg11.dtd">
<svg version="1.1" xmlns="http://www.w3.org/2000/svg" xmlns:xlink="http://www.w3.org/1999/xlink" x="0px" y="0px"
	 viewBox="0 0 85.5 85.5" enable-background="new 0 0 85.5 85.5" xml:space="preserve">
<g id="Sites">
</g>
<g id="Map_Icons">
	<g>
		<path fill="#919090" d="M85.5,42.7c0,23.6-19.1,42.7-42.7,42.7C19.1,85.5,0,66.3,0,42.7S19.1,0,42.7,0C66.3,0,85.5,19.1,85.5,42.7
			"/>
		<g>
			<rect x="17.4" y="39.9" fill="#FFFFFF" width="8.6" height="3.8"/>
			<rect x="26.5" y="39.9" fill="#FFFFFF" width="8.6" height="3.8"/>
			<rect x="17.4" y="35.6" fill="#FFFFFF" width="8.6" height="3.8"/>
			<rect x="26.5" y="35.6" fill="#FFFFFF" width="8.6" height="3.8"/>
			<rect x="35.5" y="39.9" fill="#FFFFFF" width="8.6" height="3.8"/>
			<path fill="#FFFFFF" d="M78.1,42.4H75l0-4.8l-2.9,0L70.3,32h-3.1v5.4l-1.5,0l-1.1-4.1H54.4v9h-2.6l-1,1.9H17.3l-2.6-2l-7.4,0
				l0.2,2.8l4,8.3l57.3,0h2.9h2.8c0,0-0.7-2.3,1.8-4.1c1.9-1.3,1.8-3.6,1.8-3.6L78.1,42.4z M61.2,36.7h-5.9v-2.3h5.9V36.7z"/>
		</g>
	</g>
</g>
</svg>
