<?xml version="1.0" encoding="utf-8"?>
<!-- Generator: Adobe Illustrator 17.1.0, SVG Export Plug-In . SVG Version: 6.00 Build 0)  -->
<!DOCTYPE svg PUBLIC "-//W3C//DTD SVG 1.1//EN" "http://www.w3.org/Graphics/SVG/1.1/DTD/svg11.dtd">
<svg version="1.1" xmlns="http://www.w3.org/2000/svg" xmlns:xlink="http://www.w3.org/1999/xlink" x="0px" y="0px"
	 viewBox="0 0 71 71" enable-background="new 0 0 71 71" xml:space="preserve">
<g id="Sites">
</g>
<g id="Map_Icons">
	<g opacity="0.3">
		<defs>
			<rect id="SVGID_3_" x="0" y="0" opacity="0.3" width="71" height="71"/>
		</defs>
		<clipPath id="SVGID_2_">
			<use xlink:href="#SVGID_3_"  overflow="visible"/>
		</clipPath>
		<path clip-path="url(#SVGID_2_)" fill="#48B86E" d="M71,64.6c0,3.5-2.9,6.4-6.4,6.4H6.4C2.9,71,0,68.1,0,64.6V6.4
			C0,2.9,2.9,0,6.4,0h58.2C68.1,0,71,2.9,71,6.4V64.6z"/>
	</g>
	<path fill="#48B86E" d="M62.9,56.5c0,3.5-2.9,6.4-6.4,6.4H14.5c-3.5,0-6.4-2.9-6.4-6.4V14.5c0-3.5,2.9-6.4,6.4-6.4h41.9
		c3.5,0,6.4,2.9,6.4,6.4V56.5z"/>
</g>
</svg>
