<?xml version="1.0" encoding="utf-8"?>
<!-- Generator: Adobe Illustrator 17.1.0, SVG Export Plug-In . SVG Version: 6.00 Build 0)  -->
<!DOCTYPE svg PUBLIC "-//W3C//DTD SVG 1.1//EN" "http://www.w3.org/Graphics/SVG/1.1/DTD/svg11.dtd">
<svg version="1.1" xmlns="http://www.w3.org/2000/svg" xmlns:xlink="http://www.w3.org/1999/xlink" x="0px" y="0px"
	 viewBox="0 0 73.2 20.8" enable-background="new 0 0 73.2 20.8" xml:space="preserve">
<g id="Sites">
</g>
<g id="Map_Icons">
	<g>
		<rect x="38.8" y="0.5" fill="#231F20" width="34" height="1.9"/>
		<g>
			<rect x="0" y="19.9" fill="#231F20" width="73.2" height="0.9"/>
			<path fill="#231F20" d="M5.6,19.9c1,0,1.8-0.8,1.8-1.8h1.2c0,1,0.8,1.8,1.8,1.8c1,0,1.8-0.8,1.8-1.8h0.4h15.4
				c0,1,0.8,1.8,1.8,1.8c1,0,1.8-0.8,1.8-1.8h1.2c0,1,0.8,1.8,1.8,1.8s1.8-0.8,1.8-1.8h1.3v-0.9h1.1v0.9h4c0,1,0.8,1.8,1.8,1.8
				c1,0,1.8-0.8,1.8-1.8h1.2c0,1,0.8,1.8,1.8,1.8c1,0,1.8-0.8,1.8-1.8h9.3c0,1,0.8,1.8,1.8,1.8s1.8-0.8,1.8-1.8h1.2
				c0,1,0.8,1.8,1.8,1.8s1.8-0.8,1.8-1.8h4V3.6H38.8v10.7h-1.1V3.6H16.1V2.5h21.6V0.5h-1.8V0h-5.2v0.5h-1.1V0h-3.9v0.5h-13h-0.4H6.3
				L4.5,5.1l-4,2v11h3.4C3.9,19.1,4.6,19.9,5.6,19.9z M10.5,2.2h3.3v1.5h-3.3V2.2z M6.7,2.2H10v1.5H6.2L6.7,2.2z"/>
		</g>
	</g>
</g>
</svg>
