<?xml version="1.0" encoding="utf-8"?>
<!-- Generator: Adobe Illustrator 17.1.0, SVG Export Plug-In . SVG Version: 6.00 Build 0)  -->
<!DOCTYPE svg PUBLIC "-//W3C//DTD SVG 1.1//EN" "http://www.w3.org/Graphics/SVG/1.1/DTD/svg11.dtd">
<svg version="1.1" id="Layer_1" xmlns="http://www.w3.org/2000/svg" xmlns:xlink="http://www.w3.org/1999/xlink" x="0px" y="0px"
	 viewBox="0 0 65.399 24.898" enable-background="new 0 0 65.399 24.898" xml:space="preserve">
<g>
	<circle fill="#221F1F" cx="6.634" cy="22.479" r="2.419"/>
	<circle fill="#221F1F" cx="18.487" cy="22.479" r="2.419"/>
	<circle fill="#221F1F" cx="25.76" cy="22.479" r="2.419"/>
	<circle fill="#221F1F" cx="47.581" cy="22.479" r="2.419"/>
	<circle fill="#221F1F" cx="54.854" cy="22.479" r="2.419"/>
	<path fill="#221F1F" d="M11.983,18.46h-0.874V7.592H4.787H3.389L0,14.552v7.938h3.486c0-1.739,1.409-3.148,3.148-3.148
		s3.148,1.409,3.148,3.148h0.849h2.637h2.072c0-1.739,1.409-3.148,3.148-3.148s3.148,1.409,3.148,3.148h0.978
		c0-1.739,1.409-3.148,3.148-3.148c1.739,0,3.148,1.409,3.148,3.148h15.525c0-1.739,1.409-3.148,3.148-3.148
		c1.739,0,3.148,1.409,3.148,3.148h0.978c0-1.739,1.409-3.148,3.148-3.148c1.739,0,3.148,1.409,3.148,3.148h2.823v-4.03H11.988
		 M11.988,17.941h-0.005 M6.633,12.68H2.511l1.703-4.002h2.419V12.68z"/>
	<rect x="12.213" y="0" fill="#221F1F" width="53.186" height="17.288"/>
</g>
</svg>
