<?xml version="1.0" encoding="utf-8"?>
<!-- Generator: Adobe Illustrator 17.1.0, SVG Export Plug-In . SVG Version: 6.00 Build 0)  -->
<!DOCTYPE svg PUBLIC "-//W3C//DTD SVG 1.1//EN" "http://www.w3.org/Graphics/SVG/1.1/DTD/svg11.dtd">
<svg version="1.1" xmlns="http://www.w3.org/2000/svg" xmlns:xlink="http://www.w3.org/1999/xlink" x="0px" y="0px"
	 viewBox="0 0 85.5 85.5" enable-background="new 0 0 85.5 85.5" xml:space="preserve">
<g id="Sites">
</g>
<g id="Map_Icons">
	<g>
		<path fill="#919090" d="M85.5,42.7c0,23.6-19.1,42.7-42.7,42.7C19.1,85.5,0,66.3,0,42.7S19.1,0,42.7,0C66.3,0,85.5,19.1,85.5,42.7
			"/>
		<g>
			<path fill="#FFFFFF" d="M73.3,39.6l4.2-10.8h-4.2l-7.8,9.2H53.1c0-2,0-4.5,0-4.5c0-0.1,5.9-8.9,5.9-8.9l-5,0L32.5,38.1h-9.4
				c0,0-3.8-2.2-8.4,0l1,0.5l-0.4,1.3l-1.7-0.7c0,0-5.7,1.9-5.7,4.6c0,2.6,7.3,2.6,9.8,2.6h5.4h11.2l21.2,14.5h7.5
				c0,0-9.4-10.7-9.4-10.8c0-0.1,0-2.2,0-3.7h12.5c0,0,5.9-0.5,8.6-5.6C75,40.3,74.4,40,73.3,39.6z M15.7,39.9l0.4-1.3h0.7l0.9,1.3
				H15.7z"/>
		</g>
	</g>
</g>
</svg>
