<?xml version="1.0" encoding="utf-8"?>
<!-- Generator: Adobe Illustrator 17.1.0, SVG Export Plug-In . SVG Version: 6.00 Build 0)  -->
<!DOCTYPE svg PUBLIC "-//W3C//DTD SVG 1.1//EN" "http://www.w3.org/Graphics/SVG/1.1/DTD/svg11.dtd">
<svg version="1.1" xmlns="http://www.w3.org/2000/svg" xmlns:xlink="http://www.w3.org/1999/xlink" x="0px" y="0px"
	 viewBox="0 0 85.5 85.5" enable-background="new 0 0 85.5 85.5" xml:space="preserve">
<g id="Sites">
	<g>
		<path fill="#4D4E4E" d="M85.5,42.7c0,23.6-19.1,42.7-42.7,42.7C19.1,85.5,0,66.3,0,42.7C0,19.1,19.1,0,42.7,0
			C66.3,0,85.5,19.1,85.5,42.7"/>
		<g>
			<path fill="#FFFFFF" d="M65,35.2v-5.6h-2.4v5.6H38c-1-2.7-0.6-9.9-0.6-9.9h-5.1c-0.1,6.2-0.5,8.8-0.8,9.9h-1.3
				c-1-2.7-0.6-9.9-0.6-9.9h-5.1c-0.1,6.2-0.5,8.8-0.9,9.9H20v21h3.4v-9h17.3v9h27.2v-21H65z"/>
		</g>
	</g>
</g>
<g id="Map_Icons">
</g>
</svg>
