<?xml version="1.0" encoding="utf-8"?>
<!-- Generator: Adobe Illustrator 17.1.0, SVG Export Plug-In . SVG Version: 6.00 Build 0)  -->
<!DOCTYPE svg PUBLIC "-//W3C//DTD SVG 1.1//EN" "http://www.w3.org/Graphics/SVG/1.1/DTD/svg11.dtd">
<svg version="1.1" id="Layer_1" xmlns="http://www.w3.org/2000/svg" xmlns:xlink="http://www.w3.org/1999/xlink" x="0px" y="0px"
	 viewBox="0 0 558.6 394.7" enable-background="new 0 0 558.6 394.7" xml:space="preserve">
<g>
	<path fill="#CCCCCC" d="M428.2,67.1c-72.1,0-130.5,58.4-130.5,130.5l32.6-0.2c0.1-53.9,43.9-97.6,97.8-97.6V67.1z"/>
	<path fill="#909090" d="M428.2,99.7c54,0,97.7,43.7,97.8,97.6l32.6,0.2c0-72.1-58.4-130.5-130.5-130.5V99.7z"/>
	<path fill="#F25316" d="M428.2,294.9c-54,0-97.7-43.7-97.8-97.6l-32.6-0.2c0,72.1,58.4,130.5,130.5,130.5V294.9z"/>
	<path fill="#484949" d="M428.2,327.6c72.1,0,130.5-58.4,130.5-130.5l-32.6,0.2c-0.1,53.9-43.9,97.6-97.8,97.6V327.6z"/>
	<path fill="#05373F" d="M197.7,0C88.5,0,0,88.5,0,197.7l49.4-0.3c0.2-81.7,66.5-147.9,148.2-147.9V0z"/>
	<path fill="#41788F" d="M197.7,49.4c81.8,0,148.1,66.2,148.2,147.9l49.4,0.3C395.3,88.5,306.8,0,197.7,0V49.4z"/>
	<path fill="#1B9EBC" d="M197.7,345.2c-81.8,0-148.1-66.2-148.2-147.9L0,197c0,109.2,88.5,197.7,197.7,197.7V345.2z"/>
	<path fill="#18DFFF" d="M197.7,394.7c109.2,0,197.7-88.5,197.7-197.7l-49.4,0.3c-0.2,81.7-66.5,147.9-148.2,147.9V394.7z"/>
</g>
</svg>
